<svg width="30" height="30" viewBox="0 0 30 30" fill="none" xmlns="http://www.w3.org/2000/svg">
<g clip-path="url(#clip0_243_929)">
<path d="M29.6425 15.2807C29.6425 14.0516 29.5428 13.1547 29.327 12.2246H15.292V17.7721H23.5302C23.3642 19.1507 22.4673 21.2269 20.4741 22.622L20.4462 22.8077L24.8837 26.2455L25.1912 26.2762C28.0147 23.6685 29.6425 19.8317 29.6425 15.2807Z" fill="#4285F4"/>
<path d="M15.292 29.897C19.328 29.897 22.7163 28.5682 25.1912 26.2762L20.4741 22.622C19.2118 23.5023 17.5176 24.1169 15.292 24.1169C11.339 24.1169 7.9839 21.5093 6.78791 17.905L6.61261 17.9199L1.99833 21.4909L1.93799 21.6587C4.39616 26.5418 9.44543 29.897 15.292 29.897Z" fill="#34A853"/>
<path d="M6.78814 17.905C6.47257 16.9749 6.28993 15.9782 6.28993 14.9485C6.28993 13.9187 6.47257 12.9221 6.77154 11.992L6.76318 11.7939L2.09108 8.16553L1.93822 8.23824C0.925086 10.2646 0.34375 12.5401 0.34375 14.9485C0.34375 17.3569 0.925086 19.6323 1.93822 21.6587L6.78814 17.905Z" fill="#FBBC05"/>
<path d="M15.292 5.78004C18.0989 5.78004 19.9924 6.99252 21.072 8.00576L25.2908 3.8866C22.6998 1.47824 19.328 0 15.292 0C9.44543 0 4.39616 3.35508 1.93799 8.2382L6.77131 11.992C7.9839 8.38775 11.339 5.78004 15.292 5.78004Z" fill="#EB4335"/>
</g>
<defs>
<clipPath id="clip0_243_929">
<rect width="30" height="30" fill="white"/>
</clipPath>
</defs>
</svg>
